<svg width="24" height="24" viewBox="0 0 24 24" fill="none" xmlns="http://www.w3.org/2000/svg">
<path d="M5 15.8631L4 19.9631L8.1 18.9631L17.3 9.76309L14.2 6.66309L5 15.8631ZM5.5 18.9631L5.1 18.4631L5.5 16.4631L7.5 18.4631L5.5 18.9631ZM14.9 8.36309L6.8 16.3631L6.2 15.7631L14.3 7.76309L14.9 8.36309Z" fill="#EAEAEA"/>
<path d="M19.3 4.66333C18.2 3.56333 16.7 4.16333 16.7 4.16333L15.2 5.66333L18.3 8.76333L19.8 7.26333C19.8 7.16333 20.4 5.76333 19.3 4.66333ZM17.4 5.56333L16.9 5.06333C17.5 4.46333 18 4.96333 18 4.96333L17.4 5.56333Z" fill="#EAEAEA"/>
</svg>
