<svg width="24" height="24" viewBox="0 0 24 24" fill="none" xmlns="http://www.w3.org/2000/svg">
<path d="M19.7 18.0655L15.5 14.0103C15.3 13.8172 15 13.7207 14.7 13.7207C15.5 12.7552 16 11.4034 16 10.0517C16 6.8655 13.3 4.25861 10 4.25861C6.7 4.25861 4 6.8655 4 10.0517C4 13.2379 6.7 15.8448 10 15.8448C11.4 15.8448 12.8 15.3621 13.8 14.4931C13.8 14.7827 13.8 15.0724 14.1 15.2655L18.3 19.3207C18.5 19.5138 18.8 19.6103 19 19.6103C19.2 19.6103 19.5 19.5138 19.7 19.3207C20.1 19.031 20.1 18.4517 19.7 18.0655ZM10 14.3965C7.5 14.3965 5.5 12.4655 5.5 10.0517C5.5 7.63792 7.5 5.70688 10 5.70688C12.5 5.70688 14.5 7.63792 14.5 10.0517C14.5 12.4655 12.5 14.3965 10 14.3965Z" fill="#EAEAEA"/>
</svg>
